#!OML:ASF X:\für Bonn\!DataBase\2005_08_10_Bjorn_Final\c3d\bjorn.ASF
:FULLY-SPECIFIED
:DEGREES
342
root 2.36796 18.87 5.36987 -180.668 13.1287 177.318
lowerback 1.98538 1.36488 1.67301
upperback 10.7312 3.20054 -2.42373
thorax 10.5321 2.35851 -3.20755
lowerneck -0.137833 0.292781 5.0374
upperneck 22.4436 3.64004 -7.06526
head 7.03891 2.37205 -2.8484
rclavicle 2.5345e-015 -4.87022e-015
rhumerus -412.677 -1.56878 275.105
rradius 68.1655
rwrist -6.19796
rhand -17.3795 8.51417
rfingers 7.12502
rthumb 8.86915 -21.2794
lclavicle 2.5345e-015 -4.87022e-015
lhumerus -59.4506 -17.5271 83.9741
lradius 47.2306
lwrist 33.6533
lhand -35.8418 -5.27203
lfingers 7.12502
lthumb -8.95719 24.5178
rfemur -6.42573 -3.29459 12.5688
rtibia 32.2316
rfoot -19.5803 21.571
rtoes 2.53717
lfemur -26.3889 -6.03904 -6.91636
ltibia 28.545
lfoot -1.46224 0.347166
ltoes -11.6136
343
root 2.37635 18.8786 5.47085 -180.724 12.8678 177.143
lowerback 2.19687 1.31099 1.52045
upperback 10.7931 3.15589 -2.39833
thorax 10.4614 2.33118 -3.10426
lowerneck 0.0783807 0.241351 5.0097
upperneck 22.4527 3.60566 -7.05552
head 7.00076 2.36771 -2.84404
rclavicle 3.65267e-015 -3.67752e-015
rhumerus -412.714 -1.34867 275.432
rradius 67.6841
rwrist -5.74079
rhand -17.6222 8.56567
rfingers 7.12502
rthumb 8.63493 -21.2377
lclavicle 3.65267e-015 -3.67752e-015
lhumerus -60.6079 -19.957 85.8786
lradius 47.5255
lwrist 33.6375
lhand -34.3804 -4.28554
lfingers 7.12502
lthumb -7.54677 25.5598
rfemur -6.81337 -3.26725 12.5279
rtibia 32.4735
rfoot -19.5672 21.2382
rtoes 2.35132
lfemur -26.2219 -6.38358 -7.21761
ltibia 29.0877
lfoot -2.32182 1.19753
ltoes -12.2872
344
root 2.38309 18.888 5.57144 -180.773 12.6033 177.001
lowerback 2.39516 1.25182 1.41294
upperback 10.8607 3.10414 -2.38209
thorax 10.4085 2.30581 -3.03562
lowerneck 0.255165 0.191445 5.02949
upperneck 22.4639 3.56892 -7.06802
head 6.97097 2.36208 -2.85504
rclavicle -1.67725e-014 4.23411e-014
rhumerus -412.607 -1.09143 275.692
rradius 67.028
rwrist -5.23677
rhand -17.8881 8.57947
rfingers 7.12502
rthumb 8.3783 -21.2344
lclavicle -1.67725e-014 4.23411e-014
lhumerus -61.9369 -22.4926 87.933
lradius 47.9371
lwrist 33.009
lhand -32.2219 -3.3872
lfingers 7.12502
lthumb -5.46295 26.5224
rfemur -7.21467 -3.26853 12.516
rtibia 32.7401
rfoot -19.5547 20.9225
rtoes 2.20865
lfemur -26.0238 -6.79312 -7.49308
ltibia 29.7444
lfoot -3.26711 2.06781
ltoes -13.0959
345
root 2.38831 18.8939 5.67081 -180.831 12.3733 176.894
lowerback 2.57818 1.19519 1.35552
upperback 10.941 3.05555 -2.36184
thorax 10.3825 2.28739 -2.98925
lowerneck 0.433877 0.152197 5.04875
upperneck 22.4455 3.5395 -7.07881
head 6.9318 2.35839 -2.86488
rclavicle 3.91357e-015 1.39149e-015
rhumerus -412.383 -0.756825 275.923
rradius 66.2253
rwrist -4.75024
rhand -18.1726 8.96518
rfingers 7.12502
rthumb 8.10376 -20.8594
lclavicle 3.91357e-015 1.39149e-015
lhumerus -63.4468 -25.0484 90.1617
lradius 48.4129
lwrist 31.3939
lhand -29.2222 -2.81834
lfingers 7.12502
lthumb -2.56626 27.146
rfemur -7.61419 -3.23563 12.5349
rtibia 33.0306
rfoot -19.5616 20.6208
rtoes 2.09671
lfemur -25.7968 -7.11342 -7.76318
ltibia 30.5217
lfoot -4.25402 2.82583
ltoes -13.9919
346
root 2.39123 18.8959 5.77001 -180.912 12.1631 176.84
lowerback 2.81072 1.14206 1.35371
upperback 11.0113 3.00843 -2.33533
thorax 10.3186 2.27386 -2.96922
lowerneck 0.663055 0.104613 5.13287
upperneck 22.3836 3.50517 -7.15463
head 6.8707 2.35385 -2.90778
rclavicle 6.3549e-015 9.93923e-015
rhumerus -412.119 -0.376349 276.107
rradius 65.3323
rwrist -4.21908
rhand -18.4397 9.30418
rfingers 7.12502
rthumb 7.84595 -20.5302
lclavicle 6.3549e-015 9.93923e-015
lhumerus -65.1604 -27.5481 92.4568
lradius 49.0139
lwrist 28.8475
lhand -25.5577 -2.7129
lfingers 7.12502
lthumb 0.972955 27.2646
rfemur -7.99348 -3.19446 12.598
rtibia 33.3381
rfoot -19.5446 20.3146
rtoes 1.9368
lfemur -25.5312 -7.35499 -8.01455
ltibia 31.4006
lfoot -5.25498 3.49873
ltoes -14.7599
347
root 2.39281 18.8968 5.86765 -181.014 11.9696 176.836
lowerback 3.04363 1.09046 1.41147
upperback 11.0994 2.96483 -2.29788
thorax 10.2779 2.26873 -2.96973
lowerneck 0.853327 0.0513993 5.25476
upperneck 22.3189 3.46707 -7.28789
head 6.81628 2.34442 -2.97589
rclavicle -3.05538e-014 3.96327e-015
rhumerus -411.728 0.0800927 276.249
rradius 64.2736
rwrist -3.62771
rhand -18.8258 9.94832
rfingers 7.12502
rthumb 7.4733 -19.8997
lclavicle -3.05538e-014 3.96327e-015
lhumerus -66.9834 -29.9882 94.8085
lradius 49.6935
lwrist 25.428
lhand -21.5808 -3.08892
lfingers 7.12502
lthumb 4.81352 26.8364
rfemur -8.34499 -3.06144 12.7179
rtibia 33.6651
rfoot -19.5622 19.9699
rtoes 1.87373
lfemur -25.2305 -7.57157 -8.23536
ltibia 32.3714
lfoot -6.32233 4.11698
ltoes -15.3088
348
root 2.39325 18.8964 5.96502 -181.127 11.7844 176.835
lowerback 3.28286 1.03652 1.47254
upperback 11.1901 2.92009 -2.26429
thorax 10.2371 2.2642 -2.97623
lowerneck 1.01677 0.00973409 5.3296
upperneck 22.2662 3.42788 -7.33731
head 6.76906 2.33504 -3.00824
rclavicle -5.80451e-014 3.15943e-014
rhumerus -411.255 0.586291 276.356
rradius 63.0641
rwrist -2.97769
rhand -19.2642 10.6561
rfingers 7.12502
rthumb 7.05014 -19.2064
lclavicle -5.80451e-014 3.15943e-014
lhumerus -68.8583 -32.3495 97.2038
lradius 50.4018
lwrist 21.4278
lhand -17.7099 -3.77672
lfingers 7.12502
lthumb 8.55034 26.0302
rfemur -8.68882 -2.87767 12.8453
rtibia 34.0172
rfoot -19.6589 19.5558
rtoes 1.5945
lfemur -24.9281 -7.72083 -8.47987
ltibia 33.4209
lfoot -7.37092 4.6949
ltoes -15.6965
349
root 2.39113 18.8936 6.06105 -181.25 11.6199 176.847
lowerback 3.53839 0.984386 1.56896
upperback 11.2553 2.87275 -2.24046
thorax 10.1597 2.25968 -3.01443
lowerneck 1.17043 -0.0401722 5.4586
upperneck 22.2791 3.40338 -7.4474
head 6.74687 2.33637 -3.06902
rclavicle 1.97667e-014 -7.60351e-015
rhumerus -410.736 1.14712 276.419
rradius 61.7032
rwrist -2.28112
rhand -19.6919 11.3851
rfingers 7.12502
rthumb 6.63722 -18.4909
lclavicle 1.97667e-014 -7.60351e-015
lhumerus -70.7353 -34.5621 99.6052
lradius 51.0026
lwrist 16.9679
lhand -14.1978 -4.85252
lfingers 7.12502
lthumb 11.9384 24.7871
rfemur -9.04259 -2.71467 12.967
rtibia 34.4001
rfoot -19.716 19.1964
rtoes 1.42217
lfemur -24.6319 -7.77731 -8.74483
ltibia 34.5464
lfoot -8.31271 5.20313
ltoes -16.3301
